<svg width="24" height="24" viewBox="0 0 24 24" fill="none" xmlns="http://www.w3.org/2000/svg">
<path d="M21.5 12.2489C21.4969 14.6318 20.6226 16.9314 19.0417 18.7145C17.4609 20.4975 15.2826 21.641 12.9171 21.9295C12.8645 21.9355 12.8111 21.9302 12.7607 21.914C12.7102 21.8979 12.6637 21.8712 12.6243 21.8358C12.5848 21.8003 12.5534 21.7569 12.532 21.7085C12.5105 21.66 12.4996 21.6075 12.5 21.5545V14.4989H14.75C14.8528 14.4991 14.9545 14.4782 15.0489 14.4374C15.1433 14.3967 15.2283 14.3369 15.2987 14.2619C15.369 14.1869 15.4232 14.0983 15.4578 14.0015C15.4924 13.9047 15.5068 13.8018 15.5 13.6992C15.4834 13.5063 15.3944 13.3269 15.2509 13.197C15.1074 13.067 14.9201 12.9963 14.7265 12.9989H12.5V10.7489C12.5 10.3511 12.658 9.96952 12.9393 9.68822C13.2206 9.40691 13.6021 9.24888 14 9.24888H15.5C15.6028 9.2491 15.7045 9.22819 15.7989 9.18743C15.8933 9.14667 15.9783 9.08694 16.0487 9.01194C16.119 8.93695 16.1732 8.84829 16.2078 8.75148C16.2424 8.65468 16.2568 8.55178 16.25 8.44919C16.2334 8.256 16.1441 8.0763 16.0002 7.94632C15.8563 7.81635 15.6685 7.74579 15.4746 7.74888H14C13.2043 7.74888 12.4412 8.06495 11.8786 8.62756C11.316 9.19017 11 9.95323 11 10.7489V12.9989H8.74996C8.64714 12.9987 8.54538 13.0196 8.45099 13.0603C8.35659 13.1011 8.27159 13.1608 8.20126 13.2358C8.13092 13.3108 8.07676 13.3995 8.04213 13.4963C8.0075 13.5931 7.99315 13.696 7.99996 13.7986C8.01655 13.9918 8.10579 14.1715 8.24968 14.3014C8.39357 14.4314 8.5814 14.502 8.77527 14.4989H11V21.5564C11.0003 21.6093 10.9894 21.6617 10.968 21.7101C10.9467 21.7585 10.9153 21.8018 10.876 21.8373C10.8366 21.8727 10.7903 21.8994 10.7399 21.9156C10.6895 21.9318 10.6363 21.9372 10.5837 21.9314C8.15498 21.6356 5.9258 20.4388 4.3374 18.5778C2.74901 16.7168 1.91716 14.3274 2.00652 11.8823C2.19402 6.81981 6.29464 2.70419 11.3609 2.50732C12.6725 2.45651 13.981 2.67077 15.2079 3.13728C16.4348 3.60379 17.5551 4.31298 18.5016 5.22241C19.4481 6.13183 20.2015 7.22283 20.7167 8.43013C21.2319 9.63744 21.4983 10.9362 21.5 12.2489Z" fill="white"/>
</svg>
