<svg width="24" height="24" viewBox="0 0 24 24" fill="none" xmlns="http://www.w3.org/2000/svg">
<path d="M20 2.25H3.5C3.10218 2.25 2.72064 2.40804 2.43934 2.68934C2.15804 2.97064 2 3.35218 2 3.75V20.25C2 20.6478 2.15804 21.0294 2.43934 21.3107C2.72064 21.592 3.10218 21.75 3.5 21.75H20C20.3978 21.75 20.7794 21.592 21.0607 21.3107C21.342 21.0294 21.5 20.6478 21.5 20.25V3.75C21.5 3.35218 21.342 2.97064 21.0607 2.68934C20.7794 2.40804 20.3978 2.25 20 2.25ZM8.75 16.5C8.75 16.6989 8.67098 16.8897 8.53033 17.0303C8.38968 17.171 8.19891 17.25 8 17.25C7.80109 17.25 7.61032 17.171 7.46967 17.0303C7.32902 16.8897 7.25 16.6989 7.25 16.5V10.5C7.25 10.3011 7.32902 10.1103 7.46967 9.96967C7.61032 9.82902 7.80109 9.75 8 9.75C8.19891 9.75 8.38968 9.82902 8.53033 9.96967C8.67098 10.1103 8.75 10.3011 8.75 10.5V16.5ZM8 9C7.7775 9 7.55999 8.93402 7.37498 8.8104C7.18998 8.68679 7.04578 8.51109 6.96064 8.30552C6.87549 8.09995 6.85321 7.87375 6.89662 7.65552C6.94002 7.43729 7.04717 7.23684 7.2045 7.0795C7.36184 6.92217 7.56229 6.81502 7.78052 6.77162C7.99875 6.72821 8.22495 6.75049 8.43052 6.83564C8.63609 6.92078 8.81179 7.06498 8.9354 7.24998C9.05902 7.43499 9.125 7.6525 9.125 7.875C9.125 8.17337 9.00647 8.45952 8.7955 8.6705C8.58452 8.88147 8.29837 9 8 9ZM17 16.5C17 16.6989 16.921 16.8897 16.7803 17.0303C16.6397 17.171 16.4489 17.25 16.25 17.25C16.0511 17.25 15.8603 17.171 15.7197 17.0303C15.579 16.8897 15.5 16.6989 15.5 16.5V13.125C15.5 12.6277 15.3025 12.1508 14.9508 11.7992C14.5992 11.4475 14.1223 11.25 13.625 11.25C13.1277 11.25 12.6508 11.4475 12.2992 11.7992C11.9475 12.1508 11.75 12.6277 11.75 13.125V16.5C11.75 16.6989 11.671 16.8897 11.5303 17.0303C11.3897 17.171 11.1989 17.25 11 17.25C10.8011 17.25 10.6103 17.171 10.4697 17.0303C10.329 16.8897 10.25 16.6989 10.25 16.5V10.5C10.2509 10.3163 10.3193 10.1393 10.442 10.0026C10.5648 9.86596 10.7334 9.7791 10.916 9.75852C11.0985 9.73794 11.2823 9.78508 11.4324 9.891C11.5825 9.99691 11.6885 10.1542 11.7303 10.3331C12.2377 9.98894 12.8292 9.78947 13.4414 9.75611C14.0536 9.72276 14.6633 9.85679 15.205 10.1438C15.7468 10.4308 16.2001 10.86 16.5164 11.3852C16.8326 11.9105 16.9998 12.5119 17 13.125V16.5Z" fill="white"/>
</svg>
