<svg width="39" height="32" viewBox="0 0 39 32" fill="none" xmlns="http://www.w3.org/2000/svg">
<path d="M22.1915 32V22.3776C22.1915 16.3357 23.5831 11.4126 26.3662 7.60839C29.2225 3.7296 33.4338 1.19347 39 0V7.27273C36.5099 7.86946 34.5324 8.98834 33.0676 10.6294C31.6028 12.1958 30.6507 14.0979 30.2113 16.3357H36.8028V32H22.1915ZM0 32V22.3776C0 16.3357 1.39155 11.4126 4.17465 7.60839C7.03099 3.7296 11.2056 1.19347 16.6986 0V7.27273C14.2085 7.86946 12.231 8.98834 10.7662 10.6294C9.30141 12.1958 8.3493 14.0979 7.90986 16.3357H14.5014V32H0Z" fill="#292D32" fill-opacity="0.1"/>
</svg>
