<svg width="23" height="23" viewBox="0 0 23 23" fill="none" xmlns="http://www.w3.org/2000/svg">
<path d="M10.4368 13.7794C12.0232 13.7794 13.3092 12.4934 13.3092 10.907C13.3092 9.32056 12.0232 8.03453 10.4368 8.03453C8.85038 8.03453 7.56434 9.32056 7.56434 10.907C7.56434 12.4934 8.85038 13.7794 10.4368 13.7794Z" stroke="#292D32" strokeWidth="1.5" strokeLinecap="round" strokeLinejoin="round"/>
<path d="M15.7422 20.3931C15.7422 18.0113 13.3707 16.0691 10.4369 16.0691C7.50313 16.0691 5.13158 18.0011 5.13158 20.3931" stroke="#292D32" strokeWidth="1.5" strokeLinecap="round" strokeLinejoin="round"/>
<path d="M20.1889 12.5222C20.1889 17.8889 15.8444 22.2333 10.4778 22.2333C5.11111 22.2333 0.766667 17.8889 0.766667 12.5222C0.766667 7.15556 5.11111 2.81111 10.4778 2.81111C11.8169 2.81111 13.0947 3.07688 14.26 3.56755C14.1271 3.97643 14.0556 4.40578 14.0556 4.85556C14.0556 5.62222 14.2702 6.348 14.6484 6.96133C14.8529 7.30889 15.1187 7.62575 15.4253 7.89153C16.1409 8.54575 17.0916 8.94444 18.1444 8.94444C18.5942 8.94444 19.0236 8.87287 19.4222 8.72976C19.9129 9.89509 20.1889 11.1831 20.1889 12.5222Z" stroke="#292D32" strokeWidth="1.5" strokeLinecap="round" strokeLinejoin="round"/>
<path d="M22.2333 4.85556C22.2333 5.18267 22.1924 5.49955 22.1107 5.80621C22.0187 6.2151 21.8551 6.61378 21.6404 6.96133C21.1498 7.78933 20.3627 8.43331 19.4222 8.72976C19.0236 8.87287 18.5942 8.94444 18.1444 8.94444C17.0916 8.94444 16.1409 8.54575 15.4253 7.89153C15.1187 7.62575 14.8529 7.30889 14.6484 6.96133C14.2702 6.348 14.0556 5.62222 14.0556 4.85556C14.0556 4.40578 14.1271 3.97643 14.26 3.56755C14.4542 2.97466 14.7813 2.44313 15.2107 2.00358C15.9569 1.23691 16.9996 0.766667 18.1444 0.766667C19.3507 0.766667 20.4444 1.28802 21.1804 2.12624C21.8347 2.85202 22.2333 3.81289 22.2333 4.85556Z" stroke="#292D32" strokeWidth="1.5" strokeMiterlimit="10" strokeLinecap="round" strokeLinejoin="round"/>
<path d="M19.6676 4.83509H16.6213" stroke="#292D32" strokeWidth="1.5" strokeMiterlimit="10" strokeLinecap="round" strokeLinejoin="round"/>
<path d="M18.1444 3.34269V6.39912" stroke="#292D32" strokeWidth="1.5" strokeMiterlimit="10" strokeLinecap="round" strokeLinejoin="round"/>
</svg>
