<svg width="23" height="23" viewBox="0 0 23 23" fill="none" xmlns="http://www.w3.org/2000/svg">
<path d="M21.2111 7.92222V14.0556C21.2111 14.2907 21.2111 14.5155 21.1907 14.7404C21.1498 14.6791 21.0987 14.6178 21.0476 14.5667C21.0373 14.5564 21.0271 14.536 21.0169 14.5258C20.1889 13.6058 18.9724 13.0333 17.6333 13.0333C16.3453 13.0333 15.1698 13.5649 14.3316 14.4235C13.524 15.2515 13.0333 16.3862 13.0333 17.6333C13.0333 18.492 13.2787 19.3098 13.6978 20.0049C13.9227 20.3831 14.2089 20.7307 14.536 21.0169C14.5564 21.0271 14.5667 21.0374 14.5769 21.0476C14.628 21.0987 14.6791 21.1395 14.7404 21.1906C14.5258 21.2111 14.2907 21.2111 14.0556 21.2111H7.92222C2.81111 21.2111 0.766667 19.1667 0.766667 14.0556V7.92222C0.766667 2.81111 2.81111 0.766667 7.92222 0.766667H14.0556C19.1667 0.766667 21.2111 2.81111 21.2111 7.92222Z" stroke="#292D32" strokeWidth="1.5" stroke-linecap="round" stroke-linejoin="round"/>
<path d="M1.29824 5.99021H20.6796" stroke="#292D32" strokeWidth="1.5" stroke-linecap="round" stroke-linejoin="round"/>
<path d="M7.43158 0.879096V5.84708" stroke="#292D32" strokeWidth="1.5" stroke-linecap="round" stroke-linejoin="round"/>
<path d="M14.5462 0.879096V5.38713" stroke="#292D32" strokeWidth="1.5" stroke-linecap="round" stroke-linejoin="round"/>
<path d="M22.2333 17.6333C22.2333 18.0013 22.1924 18.3591 22.1004 18.7067C21.988 19.1667 21.804 19.6062 21.5689 20.0049C20.7716 21.3338 19.3098 22.2333 17.6333 22.2333C16.5293 22.2333 15.5275 21.8449 14.7507 21.1906C14.7404 21.1906 14.7404 21.1906 14.7404 21.1906C14.6791 21.1395 14.628 21.0987 14.5769 21.0476C14.5667 21.0374 14.5564 21.0271 14.536 21.0169C14.2089 20.7307 13.9227 20.3831 13.6978 20.0049C13.2787 19.3098 13.0333 18.492 13.0333 17.6333C13.0333 16.3862 13.524 15.2515 14.3316 14.4235C15.1698 13.5649 16.3453 13.0333 17.6333 13.0333C18.9724 13.0333 20.1889 13.6058 21.0169 14.5258C21.0271 14.536 21.0373 14.5564 21.0476 14.5667C21.0987 14.6178 21.1498 14.6791 21.1907 14.7404C21.8449 15.5275 22.2333 16.5396 22.2333 17.6333Z" stroke="#292D32" strokeWidth="1.5" stroke-miterlimit="10" stroke-linecap="round" stroke-linejoin="round"/>
<path d="M19.3507 17.6129H15.916" stroke="#292D32" strokeWidth="1.5" stroke-miterlimit="10" stroke-linecap="round" stroke-linejoin="round"/>
<path d="M17.6333 15.9365V19.3712" stroke="#292D32" strokeWidth="1.5" stroke-miterlimit="10" stroke-linecap="round" stroke-linejoin="round"/>
</svg>
