<svg width="164" height="44" viewBox="0 0 164 44" fill="none" xmlns="http://www.w3.org/2000/svg">
<g opacity="0.3">
<circle cx="22" cy="22" r="22" fill="black" fill-opacity="0.1"/>
<circle cx="22" cy="22" r="21.5" stroke="black" stroke-opacity="0.1"/>
</g>
<path d="M22.02 12.9099C18.71 12.9099 16.02 15.5999 16.02 18.9099V21.7999C16.02 22.4099 15.76 23.3399 15.45 23.8599L14.3 25.7699C13.59 26.9499 14.08 28.2599 15.38 28.6999C19.69 30.1399 24.34 30.1399 28.65 28.6999C29.86 28.2999 30.39 26.8699 29.73 25.7699L28.58 23.8599C28.28 23.3399 28.02 22.4099 28.02 21.7999V18.9099C28.02 15.6099 25.32 12.9099 22.02 12.9099Z" stroke="#17191C" stroke-width="1.5" stroke-miterlimit="10" stroke-linecap="round"/>
<path d="M23.87 13.1999C23.56 13.1099 23.24 13.0399 22.91 12.9999C21.95 12.8799 21.03 12.9499 20.17 13.1999C20.46 12.4599 21.18 11.9399 22.02 11.9399C22.86 11.9399 23.58 12.4599 23.87 13.1999Z" stroke="#17191C" stroke-width="1.5" stroke-miterlimit="10" stroke-linecap="round" stroke-linejoin="round"/>
<path d="M25.02 29.0601C25.02 30.7101 23.67 32.0601 22.02 32.0601C21.2 32.0601 20.44 31.7201 19.9 31.1801C19.36 30.6401 19.02 29.8801 19.02 29.0601" stroke="#17191C" stroke-width="1.5" stroke-miterlimit="10"/>
<g opacity="0.3">
<circle cx="82" cy="22" r="22" fill="black" fill-opacity="0.1"/>
<circle cx="82" cy="22" r="21.5" stroke="black" stroke-opacity="0.1"/>
</g>
<path d="M82 25C83.6569 25 85 23.6569 85 22C85 20.3431 83.6569 19 82 19C80.3431 19 79 20.3431 79 22C79 23.6569 80.3431 25 82 25Z" stroke="#17191C" stroke-width="1.5" stroke-miterlimit="10" stroke-linecap="round" stroke-linejoin="round"/>
<path d="M72 22.8799V21.1199C72 20.0799 72.85 19.2199 73.9 19.2199C75.71 19.2199 76.45 17.9399 75.54 16.3699C75.02 15.4699 75.33 14.2999 76.24 13.7799L77.97 12.7899C78.76 12.3199 79.78 12.5999 80.25 13.3899L80.36 13.5799C81.26 15.1499 82.74 15.1499 83.65 13.5799L83.76 13.3899C84.23 12.5999 85.25 12.3199 86.04 12.7899L87.77 13.7799C88.68 14.2999 88.99 15.4699 88.47 16.3699C87.56 17.9399 88.3 19.2199 90.11 19.2199C91.15 19.2199 92.01 20.0699 92.01 21.1199V22.8799C92.01 23.9199 91.16 24.7799 90.11 24.7799C88.3 24.7799 87.56 26.0599 88.47 27.6299C88.99 28.5399 88.68 29.6999 87.77 30.2199L86.04 31.2099C85.25 31.6799 84.23 31.3999 83.76 30.6099L83.65 30.4199C82.75 28.8499 81.27 28.8499 80.36 30.4199L80.25 30.6099C79.78 31.3999 78.76 31.6799 77.97 31.2099L76.24 30.2199C75.33 29.6999 75.02 28.5299 75.54 27.6299C76.45 26.0599 75.71 24.7799 73.9 24.7799C72.85 24.7799 72 23.9199 72 22.8799Z" stroke="#17191C" stroke-width="1.5" stroke-miterlimit="10" stroke-linecap="round" stroke-linejoin="round"/>
<g opacity="0.3">
<circle cx="142" cy="22" r="22" fill="black" fill-opacity="0.1"/>
<circle cx="142" cy="22" r="21.5" stroke="black" stroke-opacity="0.1"/>
</g>
<path d="M142.12 22.78C142.05 22.77 141.96 22.77 141.88 22.78C140.12 22.72 138.72 21.28 138.72 19.51C138.72 17.7 140.18 16.23 142 16.23C143.81 16.23 145.28 17.7 145.28 19.51C145.27 21.28 143.88 22.72 142.12 22.78Z" stroke="#17191C" stroke-width="1.5" stroke-linecap="round" stroke-linejoin="round"/>
<path d="M148.74 29.3801C146.96 31.0101 144.6 32.0001 142 32.0001C139.4 32.0001 137.04 31.0101 135.26 29.3801C135.36 28.4401 135.96 27.5201 137.03 26.8001C139.77 24.9801 144.25 24.9801 146.97 26.8001C148.04 27.5201 148.64 28.4401 148.74 29.3801Z" stroke="#17191C" stroke-width="1.5" stroke-linecap="round" stroke-linejoin="round"/>
<path d="M142 32C147.523 32 152 27.5228 152 22C152 16.4772 147.523 12 142 12C136.477 12 132 16.4772 132 22C132 27.5228 136.477 32 142 32Z" stroke="#17191C" stroke-width="1.5" stroke-linecap="round" stroke-linejoin="round"/>
</svg>
