<svg width="24" height="24" viewBox="0 0 24 24" fill="none" xmlns="http://www.w3.org/2000/svg">
<path d="M16.25 2.5H7.25C5.85807 2.50149 4.52358 3.05509 3.53933 4.03933C2.55509 5.02358 2.00149 6.35807 2 7.75V16.75C2.00149 18.1419 2.55509 19.4764 3.53933 20.4607C4.52358 21.4449 5.85807 21.9985 7.25 22H16.25C17.6419 21.9985 18.9764 21.4449 19.9607 20.4607C20.9449 19.4764 21.4985 18.1419 21.5 16.75V7.75C21.4985 6.35807 20.9449 5.02358 19.9607 4.03933C18.9764 3.05509 17.6419 2.50149 16.25 2.5ZM11.75 16.75C10.86 16.75 9.98995 16.4861 9.24993 15.9916C8.50991 15.4971 7.93314 14.7943 7.59254 13.9721C7.25195 13.1498 7.16283 12.245 7.33647 11.3721C7.5101 10.4992 7.93868 9.69736 8.56802 9.06802C9.19736 8.43868 9.99918 8.0101 10.8721 7.83647C11.745 7.66283 12.6498 7.75195 13.4721 8.09254C14.2943 8.43314 14.9971 9.00991 15.4916 9.74993C15.9861 10.49 16.25 11.36 16.25 12.25C16.2488 13.4431 15.7743 14.587 14.9306 15.4306C14.087 16.2743 12.9431 16.7488 11.75 16.75ZM17.375 7.75C17.1525 7.75 16.935 7.68402 16.75 7.5604C16.565 7.43679 16.4208 7.26109 16.3356 7.05552C16.2505 6.84995 16.2282 6.62375 16.2716 6.40552C16.315 6.18729 16.4222 5.98684 16.5795 5.8295C16.7368 5.67217 16.9373 5.56502 17.1555 5.52162C17.3738 5.47821 17.6 5.50049 17.8055 5.58564C18.0111 5.67078 18.1868 5.81498 18.3104 5.99998C18.434 6.18499 18.5 6.4025 18.5 6.625C18.5 6.92337 18.3815 7.20952 18.1705 7.4205C17.9595 7.63147 17.6734 7.75 17.375 7.75ZM14.75 12.25C14.75 12.8433 14.5741 13.4234 14.2444 13.9167C13.9148 14.4101 13.4462 14.7946 12.8981 15.0216C12.3499 15.2487 11.7467 15.3081 11.1647 15.1924C10.5828 15.0766 10.0482 14.7909 9.62868 14.3713C9.20912 13.9518 8.9234 13.4172 8.80764 12.8353C8.69189 12.2533 8.7513 11.6501 8.97836 11.1019C9.20542 10.5538 9.58994 10.0852 10.0833 9.75559C10.5766 9.42595 11.1567 9.25 11.75 9.25C12.5456 9.25 13.3087 9.56607 13.8713 10.1287C14.4339 10.6913 14.75 11.4544 14.75 12.25Z" fill="white"/>
</svg>
