<svg width="104" height="24" viewBox="0 0 104 24" fill="none" xmlns="http://www.w3.org/2000/svg">
<path d="M21.5 12.2489C21.4969 14.6318 20.6226 16.9314 19.0417 18.7145C17.4609 20.4975 15.2826 21.641 12.9171 21.9295C12.8645 21.9355 12.8111 21.9302 12.7607 21.914C12.7102 21.8979 12.6637 21.8712 12.6243 21.8358C12.5848 21.8003 12.5534 21.7569 12.532 21.7085C12.5105 21.66 12.4996 21.6075 12.5 21.5545V14.4989H14.75C14.8528 14.4991 14.9545 14.4782 15.0489 14.4374C15.1433 14.3967 15.2283 14.3369 15.2987 14.2619C15.369 14.1869 15.4232 14.0983 15.4578 14.0015C15.4924 13.9047 15.5068 13.8018 15.5 13.6992C15.4834 13.5063 15.3944 13.3269 15.2509 13.197C15.1074 13.067 14.9201 12.9963 14.7265 12.9989H12.5V10.7489C12.5 10.3511 12.658 9.96952 12.9393 9.68822C13.2206 9.40691 13.6021 9.24888 14 9.24888H15.5C15.6028 9.2491 15.7045 9.22819 15.7989 9.18743C15.8933 9.14667 15.9783 9.08694 16.0487 9.01194C16.119 8.93695 16.1732 8.84829 16.2078 8.75148C16.2424 8.65468 16.2568 8.55178 16.25 8.44919C16.2334 8.256 16.1441 8.0763 16.0002 7.94632C15.8563 7.81635 15.6685 7.74579 15.4746 7.74888H14C13.2043 7.74888 12.4412 8.06495 11.8786 8.62756C11.316 9.19017 11 9.95323 11 10.7489V12.9989H8.74996C8.64714 12.9987 8.54538 13.0196 8.45099 13.0603C8.35659 13.1011 8.27159 13.1608 8.20126 13.2358C8.13092 13.3108 8.07676 13.3995 8.04213 13.4963C8.0075 13.5931 7.99315 13.696 7.99996 13.7986C8.01655 13.9918 8.10579 14.1715 8.24968 14.3014C8.39357 14.4314 8.5814 14.502 8.77527 14.4989H11V21.5564C11.0003 21.6093 10.9894 21.6617 10.968 21.7101C10.9467 21.7585 10.9153 21.8018 10.876 21.8373C10.8366 21.8727 10.7903 21.8994 10.7399 21.9156C10.6895 21.9318 10.6363 21.9372 10.5837 21.9314C8.15498 21.6356 5.9258 20.4388 4.3374 18.5778C2.74901 16.7168 1.91716 14.3274 2.00652 11.8823C2.19402 6.81981 6.29464 2.70419 11.3609 2.50732C12.6725 2.45651 13.981 2.67077 15.2079 3.13728C16.4348 3.60379 17.5551 4.31298 18.5016 5.22241C19.4481 6.13183 20.2015 7.22283 20.7167 8.43013C21.2319 9.63744 21.4983 10.9362 21.5 12.2489Z" fill="#292D32"/>
<path d="M56.25 2.5H47.25C45.8581 2.50149 44.5236 3.05509 43.5393 4.03933C42.5551 5.02358 42.0015 6.35807 42 7.75V16.75C42.0015 18.1419 42.5551 19.4764 43.5393 20.4607C44.5236 21.4449 45.8581 21.9985 47.25 22H56.25C57.6419 21.9985 58.9764 21.4449 59.9607 20.4607C60.9449 19.4764 61.4985 18.1419 61.5 16.75V7.75C61.4985 6.35807 60.9449 5.02358 59.9607 4.03933C58.9764 3.05509 57.6419 2.50149 56.25 2.5ZM51.75 16.75C50.86 16.75 49.99 16.4861 49.2499 15.9916C48.5099 15.4971 47.9331 14.7943 47.5925 13.9721C47.2519 13.1498 47.1628 12.245 47.3365 11.3721C47.5101 10.4992 47.9387 9.69736 48.568 9.06802C49.1974 8.43868 49.9992 8.0101 50.8721 7.83647C51.745 7.66283 52.6498 7.75195 53.4721 8.09254C54.2943 8.43314 54.9971 9.00991 55.4916 9.74993C55.9861 10.49 56.25 11.36 56.25 12.25C56.2488 13.4431 55.7743 14.587 54.9306 15.4306C54.087 16.2743 52.9431 16.7488 51.75 16.75ZM57.375 7.75C57.1525 7.75 56.935 7.68402 56.75 7.5604C56.565 7.43679 56.4208 7.26109 56.3356 7.05552C56.2505 6.84995 56.2282 6.62375 56.2716 6.40552C56.315 6.18729 56.4222 5.98684 56.5795 5.8295C56.7368 5.67217 56.9373 5.56502 57.1555 5.52162C57.3738 5.47821 57.6 5.50049 57.8055 5.58564C58.0111 5.67078 58.1868 5.81498 58.3104 5.99998C58.434 6.18499 58.5 6.4025 58.5 6.625C58.5 6.92337 58.3815 7.20952 58.1705 7.4205C57.9595 7.63147 57.6734 7.75 57.375 7.75ZM54.75 12.25C54.75 12.8433 54.5741 13.4234 54.2444 13.9167C53.9148 14.4101 53.4462 14.7946 52.8981 15.0216C52.3499 15.2487 51.7467 15.3081 51.1647 15.1924C50.5828 15.0766 50.0482 14.7909 49.6287 14.3713C49.2091 13.9518 48.9234 13.4172 48.8076 12.8353C48.6919 12.2533 48.7513 11.6501 48.9784 11.1019C49.2054 10.5538 49.5899 10.0852 50.0833 9.75559C50.5766 9.42595 51.1567 9.25 51.75 9.25C52.5456 9.25 53.3087 9.56607 53.8713 10.1287C54.4339 10.6913 54.75 11.4544 54.75 12.25Z" fill="#292D32"/>
<path d="M100 2.25H83.5C83.1022 2.25 82.7206 2.40804 82.4393 2.68934C82.158 2.97064 82 3.35218 82 3.75V20.25C82 20.6478 82.158 21.0294 82.4393 21.3107C82.7206 21.592 83.1022 21.75 83.5 21.75H100C100.398 21.75 100.779 21.592 101.061 21.3107C101.342 21.0294 101.5 20.6478 101.5 20.25V3.75C101.5 3.35218 101.342 2.97064 101.061 2.68934C100.779 2.40804 100.398 2.25 100 2.25ZM88.75 16.5C88.75 16.6989 88.671 16.8897 88.5303 17.0303C88.3897 17.171 88.1989 17.25 88 17.25C87.8011 17.25 87.6103 17.171 87.4697 17.0303C87.329 16.8897 87.25 16.6989 87.25 16.5V10.5C87.25 10.3011 87.329 10.1103 87.4697 9.96967C87.6103 9.82902 87.8011 9.75 88 9.75C88.1989 9.75 88.3897 9.82902 88.5303 9.96967C88.671 10.1103 88.75 10.3011 88.75 10.5V16.5ZM88 9C87.7775 9 87.56 8.93402 87.375 8.8104C87.19 8.68679 87.0458 8.51109 86.9606 8.30552C86.8755 8.09995 86.8532 7.87375 86.8966 7.65552C86.94 7.43729 87.0472 7.23684 87.2045 7.0795C87.3618 6.92217 87.5623 6.81502 87.7805 6.77162C87.9988 6.72821 88.225 6.75049 88.4305 6.83564C88.6361 6.92078 88.8118 7.06498 88.9354 7.24998C89.059 7.43499 89.125 7.6525 89.125 7.875C89.125 8.17337 89.0065 8.45952 88.7955 8.6705C88.5845 8.88147 88.2984 9 88 9ZM97 16.5C97 16.6989 96.921 16.8897 96.7803 17.0303C96.6397 17.171 96.4489 17.25 96.25 17.25C96.0511 17.25 95.8603 17.171 95.7197 17.0303C95.579 16.8897 95.5 16.6989 95.5 16.5V13.125C95.5 12.6277 95.3025 12.1508 94.9508 11.7992C94.5992 11.4475 94.1223 11.25 93.625 11.25C93.1277 11.25 92.6508 11.4475 92.2992 11.7992C91.9475 12.1508 91.75 12.6277 91.75 13.125V16.5C91.75 16.6989 91.671 16.8897 91.5303 17.0303C91.3897 17.171 91.1989 17.25 91 17.25C90.8011 17.25 90.6103 17.171 90.4697 17.0303C90.329 16.8897 90.25 16.6989 90.25 16.5V10.5C90.2509 10.3163 90.3193 10.1393 90.442 10.0026C90.5648 9.86596 90.7334 9.7791 90.916 9.75852C91.0985 9.73794 91.2823 9.78508 91.4324 9.891C91.5825 9.99691 91.6885 10.1542 91.7303 10.3331C92.2377 9.98894 92.8292 9.78947 93.4414 9.75611C94.0536 9.72276 94.6633 9.85679 95.205 10.1438C95.7468 10.4308 96.2001 10.86 96.5164 11.3852C96.8326 11.9105 96.9998 12.5119 97 13.125V16.5Z" fill="#292D32"/>
</svg>
